<svg xmlns="http://www.w3.org/2000/svg" xmlns:xlink="http://www.w3.org/1999/xlink" width="500" zoomAndPan="magnify" viewBox="0 0 375 374.999991" height="500" preserveAspectRatio="xMidYMid meet" version="1.0"><defs><g/></defs><rect x="-37.5" width="450" fill="#ffffff" y="-37.499999" height="449.999989" fill-opacity="1"/><rect x="-37.5" width="450" fill="#ffffff" y="-37.499999" height="449.999989" fill-opacity="1"/><rect x="-37.5" width="450" fill="#ffffff" y="-37.499999" height="449.999989" fill-opacity="1"/><g fill="#ffffff" fill-opacity="1"><g transform="translate(100.622309, 235.031834)"><g><path d="M 16.183594 0 L 16.183594 -3.546875 L 4.65625 -3.546875 L 4.65625 -11.96875 L 13.1875 -11.96875 L 13.1875 -9.753906 L 16.734375 -9.753906 L 16.734375 -13.300781 L 14.519531 -15.515625 L 3.324219 -15.515625 L 1.109375 -13.300781 L 1.109375 -2.214844 L 3.324219 0 Z M 16.183594 0 "/></g></g></g><g fill="#ffffff" fill-opacity="1"><g transform="translate(124.341223, 235.031834)"><g><path d="M 15.074219 0 L 17.289062 -2.214844 L 17.289062 -13.300781 L 15.074219 -15.515625 L 3.324219 -15.515625 L 1.109375 -13.300781 L 1.109375 -2.214844 L 3.324219 0 Z M 13.742188 -3.546875 L 4.65625 -3.546875 L 4.65625 -11.96875 L 13.742188 -11.96875 Z M 13.742188 -3.546875 "/></g></g></g><g fill="#ffffff" fill-opacity="1"><g transform="translate(148.614321, 235.031834)"><g><path d="M 5.210938 -15.515625 L 0.109375 -15.515625 L 0.109375 -11.96875 L 1.773438 -11.96875 L 1.773438 0 L 5.320312 0 L 5.320312 -9.464844 C 6.917969 -7.292969 8.511719 -5.121094 10.128906 -2.949219 C 11.726562 -5.121094 13.34375 -7.292969 14.960938 -9.464844 L 14.960938 0 L 18.507812 0 L 18.507812 -15.515625 L 15.074219 -15.515625 C 13.410156 -13.300781 11.769531 -11.0625 10.128906 -8.84375 Z M 5.210938 -15.515625 "/></g></g></g><g fill="#ffffff" fill-opacity="1"><g transform="translate(174.106616, 235.031834)"><g><path d="M 15.296875 0 L 15.296875 -3.546875 L 5.320312 -3.546875 L 5.320312 -5.984375 L 13.078125 -5.984375 L 13.078125 -9.53125 L 5.320312 -9.53125 L 5.320312 -11.96875 L 15.296875 -11.96875 L 15.296875 -15.515625 L 0.109375 -15.515625 L 0.109375 -11.96875 L 1.773438 -11.96875 L 1.773438 0 Z M 15.296875 0 "/></g></g></g><g fill="#ffffff" fill-opacity="1"><g transform="translate(196.384671, 235.031834)"><g><path d="M 13.523438 -3.769531 L 15.738281 -5.984375 L 15.738281 -13.300781 L 13.523438 -15.515625 L 0.109375 -15.515625 L 0.109375 -11.96875 L 12.191406 -11.96875 L 12.191406 -7.316406 L 5.320312 -7.316406 L 5.320312 -10.863281 L 1.773438 -10.863281 L 1.773438 0 L 5.320312 0 L 5.320312 -3.769531 L 9.023438 -3.769531 C 10.128906 -2.503906 11.214844 -1.242188 12.347656 0 L 16.847656 0 C 15.714844 -1.242188 14.628906 -2.503906 13.523438 -3.769531 Z M 13.523438 -3.769531 "/></g></g></g><g fill="#ffffff" fill-opacity="1"><g transform="translate(219.327741, 235.031834)"><g><path d="M 16.183594 0 L 16.183594 -3.546875 L 4.65625 -3.546875 L 4.65625 -11.96875 L 13.1875 -11.96875 L 13.1875 -9.753906 L 16.734375 -9.753906 L 16.734375 -13.300781 L 14.519531 -15.515625 L 3.324219 -15.515625 L 1.109375 -13.300781 L 1.109375 -2.214844 L 3.324219 0 Z M 16.183594 0 "/></g></g></g><g fill="#ffffff" fill-opacity="1"><g transform="translate(243.046655, 235.031834)"><g><path d="M 4.65625 0 L 4.65625 -15.515625 L 1.109375 -15.515625 L 1.109375 0 Z M 4.65625 0 "/></g></g></g><g fill="#ffffff" fill-opacity="1"><g transform="translate(254.684429, 235.031834)"><g><path d="M 15.074219 0 L 17.289062 -2.214844 L 17.289062 -13.300781 L 15.074219 -15.515625 L 3.324219 -15.515625 L 1.109375 -13.300781 L 1.109375 -2.214844 L 3.324219 0 Z M 13.742188 -3.546875 L 4.65625 -3.546875 L 4.65625 -11.96875 L 13.742188 -11.96875 Z M 13.742188 -3.546875 "/></g></g></g><g fill="#ffffff" fill-opacity="1"><g transform="translate(103.519702, 196.279482)"><g><path d="M 30.535156 0 L 35.195312 -4.660156 L 35.195312 -32.632812 L 11.65625 -32.632812 L 11.65625 -25.175781 L 27.738281 -25.175781 L 27.738281 -7.460938 L 9.789062 -7.460938 L 9.789062 -12.121094 L 2.332031 -12.121094 L 2.332031 -4.660156 L 6.992188 0 Z M 30.535156 0 "/></g></g></g><g fill="#ffffff" fill-opacity="1"><g transform="translate(147.183018, 196.279482)"><g><path d="M 21.304688 -13.984375 C 24.753906 -9.324219 28.203125 -4.660156 31.699219 0 L 38.925781 0 L 38.925781 -32.632812 L 31.46875 -32.632812 L 31.46875 -12.679688 C 28.066406 -17.25 24.660156 -21.816406 21.304688 -26.386719 C 17.902344 -21.816406 14.546875 -17.25 11.1875 -12.679688 L 11.1875 -32.632812 L 0.234375 -32.632812 L 0.234375 -25.175781 L 3.730469 -25.175781 L 3.730469 0 L 10.957031 0 Z M 21.304688 -13.984375 "/></g></g></g><g fill="#ffffff" fill-opacity="1"><g transform="translate(194.573806, 196.279482)"><g><path d="M 27.503906 -12.585938 L 27.503906 -20.046875 L 11.1875 -20.046875 L 11.1875 -25.175781 L 32.167969 -25.175781 L 32.167969 -32.632812 L 0.234375 -32.632812 L 0.234375 -25.175781 L 3.730469 -25.175781 L 3.730469 0 L 11.1875 0 L 11.1875 -12.585938 Z M 27.503906 -12.585938 "/></g></g></g><g fill="#ffffff" fill-opacity="1"><g transform="translate(233.344807, 196.279482)"><g><path d="M 28.671875 0 L 33.332031 -4.660156 L 33.332031 -15.382812 L 28.671875 -20.046875 L 9.789062 -20.046875 L 9.789062 -25.175781 L 33.332031 -25.175781 L 33.332031 -32.632812 L 6.992188 -32.632812 L 2.332031 -27.972656 L 2.332031 -17.25 L 6.992188 -12.585938 L 25.875 -12.585938 L 25.875 -7.460938 L 2.332031 -7.460938 L 2.332031 0 Z M 28.671875 0 "/></g></g></g></svg>